<?xml version="1.0" encoding="utf-8"?>
<svg xmlns="http://www.w3.org/2000/svg" viewBox="0 0 1024 572" width="1024" height="572">
  <g fill="black" fill-rule="evenodd">
    <!-- A Symbol - geometric triangle logo with clean lines -->
    <path d="M 208,162 L 92,364 L 148,364 L 179,310 L 250,310 L 264,286 L 310,364 L 366,364 L 285,222 L 264,258 Z
             M 188,297 L 241,297 L 256,271 L 229,225 Z
             M 115,351 L 140,351 L 221,212 L 208,189 Z
             M 318,351 L 342,351 L 285,249 L 272,271 Z"/>
    
    <!-- "akser" text -->
    <path d="M 474.5 239.7 Q 487.5 239.7 497.0 245.3 Q 506.6 250.9 511.3 259.4 V 241.4 H 527.8 V 340.0 H 511.3 V 321.6 Q 506.4 330.3 496.8 335.9 Q 487.1 341.6 474.4 341.6 Q 461.2 341.6 450.6 335.1 Q 440.0 328.7 433.9 317.0 Q 427.7 305.3 427.7 290.3 Q 427.7 275.2 433.9 263.8 Q 440.0 252.3 450.7 246.0 Q 461.4 239.7 474.5 239.7 Z M 477.8 254.0 Q 468.6 254.0 461.0 258.3 Q 453.5 262.6 449.0 270.9 Q 444.5 279.2 444.5 290.3 Q 444.5 301.7 449.0 310.0 Q 453.5 318.4 461.0 322.8 Q 468.6 327.2 477.8 327.2 Q 487.0 327.2 494.6 322.8 Q 502.3 318.4 506.8 310.0 Q 511.3 301.7 511.3 290.5 Q 511.3 279.3 506.8 271.1 Q 502.3 262.8 494.6 258.4 Q 487.0 254.0 477.8 254.0 Z"/>
    <path d="M 610.6 340.0 571.9 296.4 V 340.0 H 555.5 V 206.8 H 571.9 V 285.1 L 609.9 241.4 H 632.8 L 586.3 290.5 L 632.9 340.0 Z"/>
    <path d="M 642.8 311.0 H 659.8 Q 660.5 318.4 666.7 323.1 Q 672.9 327.8 683.0 327.8 Q 692.3 327.8 697.7 323.6 Q 703.1 319.5 703.1 313.2 Q 703.1 306.7 697.4 303.6 Q 691.6 300.4 679.6 297.3 Q 668.6 294.5 661.6 291.5 Q 654.7 288.5 649.8 282.7 Q 644.8 276.8 644.8 267.3 Q 644.8 259.7 649.3 253.4 Q 653.8 247.1 662.1 243.4 Q 670.4 239.7 681.0 239.7 Q 697.4 239.7 707.5 248.0 Q 717.5 256.3 718.3 270.7 H 701.9 Q 701.3 263.0 695.7 258.3 Q 690.0 253.6 680.5 253.6 Q 671.6 253.6 666.4 257.4 Q 661.2 261.2 661.2 267.3 Q 661.2 272.1 664.4 275.3 Q 667.5 278.4 672.3 280.3 Q 677.0 282.2 685.5 284.6 Q 696.1 287.4 702.8 290.2 Q 709.4 293.0 714.2 298.6 Q 719.0 304.2 719.2 313.2 Q 719.2 321.3 714.7 327.8 Q 710.2 334.2 702.0 337.9 Q 693.8 341.6 683.2 341.6 Q 671.8 341.6 662.8 337.8 Q 653.8 333.9 648.6 326.9 Q 643.4 320.0 642.8 311.0 Z"/>
    <path d="M 831.7 296.8 H 752.8 Q 753.7 311.4 762.8 319.6 Q 771.9 327.8 784.9 327.8 Q 795.5 327.8 802.6 322.8 Q 809.7 317.9 812.6 309.6 H 830.2 Q 826.3 323.8 814.4 332.7 Q 802.5 341.6 784.9 341.6 Q 770.8 341.6 759.8 335.3 Q 748.7 329.0 742.4 317.4 Q 736.1 305.8 736.1 290.5 Q 736.1 275.2 742.2 263.7 Q 748.3 252.2 759.4 245.9 Q 770.5 239.7 784.9 239.7 Q 798.9 239.7 809.7 245.9 Q 820.5 252.0 826.4 262.7 Q 832.2 273.4 832.2 286.9 Q 832.2 291.6 831.7 296.8 Z M 784.1 253.6 Q 771.7 253.6 763.0 261.5 Q 754.3 269.4 753.0 283.5 H 815.3 Q 815.3 274.1 811.1 267.4 Q 807.0 260.6 799.9 257.1 Q 792.8 253.6 784.1 253.6 Z"/>
    <path d="M 902.0 239.6 V 256.5 H 897.7 Q 870.2 256.5 870.2 286.4 V 340.0 H 853.8 V 241.4 H 870.2 V 257.4 Q 874.5 248.9 882.5 244.2 Q 890.5 239.6 902.0 239.6 Z"/>
  </g>
</svg>